<?xml version="1.0" encoding="UTF-8"?><svg xmlns="http://www.w3.org/2000/svg" viewBox="0 0 753.63 635.15"><defs><style>.d{fill:#fff;}</style></defs><g id="a"/><g id="b"><g id="c"><g><path class="d" d="M234.95,239.15l73.8-159.24c-27.31-19.91-60.95-31.67-97.33-31.67-91.35,0-165.4,74.05-165.4,165.4,0,61.22,33.26,114.67,82.7,143.27,40.31-88.64,72.12-159.44,72.12-159.44l34.11,41.68Z"/><path class="d" d="M753.63,635.15s-69.63-128.37-69.63-126.95-76.74-156.32-76.74-156.32l-27,19.89L345.79,0l-37.04,79.91c41.25,30.08,68.06,78.77,68.06,133.73,0,91.35-74.05,165.4-165.4,165.4-30.13,0-58.37-8.06-82.7-22.13C86.13,450.54,34.07,564.1,0,635.15H753.63Zm-279.85-165.38c0-5.74,.33-14.31,.99-25.7,.66-11.39,.99-19.91,.99-25.56,0-.62-.05-1.57-.13-2.85-.09-1.28-.13-2.23-.13-2.85,0-2.29,.6-3.82,1.79-4.57,1.19-.75,3.02-1.13,5.5-1.13,1.32,0,2.69,.55,4.11,1.66,1.41,1.11,2.12,2.27,2.12,3.51,0,3.53,.4,6.71,1.19,9.54,.79,2.83,1.94,5.98,3.44,9.47,1.5,3.49,2.6,6.42,3.31,8.81,.97,3.36,1.81,8.19,2.52,14.5,.71,6.31,1.28,10.62,1.72,12.91,1.5,7.42,3.35,15.23,5.56,23.45,2.21,8.21,4.75,17.31,7.62,27.29,2.87,9.98,5.01,17.66,6.42,23.05,.18,.88,.95,3.77,2.32,8.68,1.37,4.9,2.43,9.1,3.18,12.58,.75,3.49,1.17,6.38,1.26,8.68,1.24,1.85,2.19,5.43,2.85,10.73,.66,5.3,2.14,8.92,4.44,10.86,1.15-2.56,1.72-6.89,1.72-12.98,0-10.51,.18-26.25,.53-47.22,.35-20.97,.53-36.71,.53-47.22,0-4.68-.13-11.68-.4-20.99-.26-9.32-.4-16.31-.4-21,0-1.24,.13-3,.4-5.3,.26-2.3,.4-3.97,.4-5.03,0-1.94-.26-3.09-.79-3.44l.79-2.25c0-11.13-.35-18.54-1.06-22.25,.71-2.47,2.96-3.71,6.75-3.71,2.91,0,4.37,2.96,4.37,8.88-1.15,2.3-1.72,5.3-1.72,9.01,0,1.06,.04,2.61,.13,4.64,.09,2.03,.13,3.53,.13,4.5,0,3.89-.35,6.62-1.06,8.21,0,9.45-.13,23.71-.4,42.78-.26,19.07-.4,33.38-.4,42.92,0,1.68,.18,4.11,.53,7.29l-.53,1.19v34.17c0,.97,.09,2.58,.26,4.83,.18,2.25,.26,4.04,.26,5.37,0,10.77-.88,18.19-2.65,22.25v.53c0,1.15,.13,2.78,.4,4.9,.27,2.12,.4,3.75,.4,4.9,0,5.3-2.3,7.95-6.89,7.95-1.85,0-3.27-.88-4.24-2.65-.97-1.77-1.75-4.26-2.32-7.48-.58-3.22-.91-5.01-.99-5.36-6.18-19.51-10.6-33.6-13.25-42.25-2.65-8.65-6.09-20.93-10.33-36.82-4.24-15.89-7.51-30.24-9.8-43.05-.18-.79-.31-2.05-.4-3.78-.09-1.72-.31-3.2-.66-4.44-.35-1.24-.97-2.3-1.85-3.18l.53-1.32c-.09-.53-.53-2.96-1.32-7.29-.79-4.33-1.35-7.17-1.66-8.54-.31-1.37-.82-3.69-1.52-6.95-.71-3.27-1.44-6.09-2.19-8.48-.75-2.38-1.61-4.72-2.58-7.02-.09,.62-.2,1.46-.33,2.52-.13,1.06-.24,2.03-.33,2.91-.09,.88-.13,1.72-.13,2.52,0,2.3,.18,3.97,.53,5.03-1.24,4.24-1.85,10.51-1.85,18.81v74.31c0,8.66,.62,21.55,1.85,38.68,1.24,17.13,1.85,30.02,1.85,38.68l-1.85,2.12h-6.23l-.79-2.12c.35-1.41,.53-5.03,.53-10.86,0-10.51-.51-26.25-1.52-47.22-1.02-20.97-1.52-36.71-1.52-47.22v-35.5Zm-91.26-10.46c.09-1.59,.18-4.06,.26-7.42,.09-3.35,.18-6.31,.26-8.88,.09-2.56,.31-5.63,.66-9.21,.35-3.58,.82-6.71,1.39-9.41,.57-2.69,1.43-5.45,2.58-8.28,1.15-2.83,2.54-5.14,4.17-6.95,1.63-1.81,3.71-3.31,6.23-4.5,2.52-1.19,5.36-1.79,8.54-1.79,7.31,0,13.12,1.86,17.43,5.55-.02-.04-.06-.08-.08-.12l.26,.26c-.06-.05-.13-.1-.19-.15,.66,1.02,2.24,3.13,4.76,6.37,2.6,3.36,4.35,6.09,5.23,8.21,1.68,3.97,3.31,11.92,4.9,23.84,4.33,30.91,6.49,58.33,6.49,82.26,0,3.89-.42,9.71-1.26,17.48-.84,7.77-1.26,13.6-1.26,17.48l.53,1.06c-1.41,6.09-2.12,11.88-2.12,17.35,0,4.24-.97,8.94-2.91,14.11-1.94,5.17-4.83,9.8-8.68,13.91-3.84,4.11-7.93,6.16-12.25,6.16s-8.66-1.68-12.45-5.03c-3.8-3.36-6.95-7.66-9.47-12.92-2.52-5.25-4.73-11.48-6.62-18.68-1.9-7.2-3.38-14.26-4.44-21.19-1.06-6.93-1.92-14.11-2.58-21.52-.66-7.42-1.1-13.62-1.32-18.61-.22-4.99-.33-9.51-.33-13.58,0-9.01,.75-24.28,2.25-45.83Zm-92.19,0c.09-1.59,.18-4.06,.26-7.42,.09-3.35,.18-6.31,.26-8.88,.09-2.56,.31-5.63,.66-9.21,.35-3.58,.82-6.71,1.39-9.41,.57-2.69,1.43-5.45,2.58-8.28,1.15-2.83,2.54-5.14,4.17-6.95,1.63-1.81,3.71-3.31,6.23-4.5,2.52-1.19,5.36-1.79,8.54-1.79,7.31,0,13.12,1.86,17.43,5.55-.02-.04-.06-.08-.08-.12l.26,.26c-.06-.05-.13-.1-.19-.15,.66,1.02,2.24,3.13,4.76,6.37,2.6,3.36,4.35,6.09,5.23,8.21,1.68,3.97,3.31,11.92,4.9,23.84,4.33,30.91,6.49,58.33,6.49,82.26,0,3.89-.42,9.71-1.26,17.48-.84,7.77-1.26,13.6-1.26,17.48l.53,1.06c-1.41,6.09-2.12,11.88-2.12,17.35,0,4.24-.97,8.94-2.91,14.11-1.94,5.17-4.83,9.8-8.68,13.91-3.84,4.11-7.93,6.16-12.25,6.16s-8.66-1.68-12.45-5.03c-3.8-3.36-6.95-7.66-9.47-12.92-2.52-5.25-4.73-11.48-6.62-18.68-1.9-7.2-3.38-14.26-4.44-21.19-1.06-6.93-1.92-14.11-2.58-21.52-.66-7.42-1.1-13.62-1.32-18.61-.22-4.99-.33-9.51-.33-13.58,0-9.01,.75-24.28,2.25-45.83Zm-113.12,65.63c-.35-12.23-.53-21.44-.53-27.62,0-7.15,.13-17.88,.4-32.19,.27-14.31,.4-25.04,.4-32.19,0-10.33-.09-18.1-.26-23.31l5.17-2.91c1.5,.18,3.22,2.87,5.17,8.08,1.94,5.21,4.04,12.54,6.29,21.99,2.25,9.45,4.28,18.37,6.09,26.76,1.81,8.39,3.88,18.37,6.23,29.94,2.34,11.57,3.99,19.52,4.97,23.84,.18,.71,.66,2.78,1.46,6.22,.79,3.44,1.46,6.38,1.99,8.81,.53,2.43,1.13,5.3,1.79,8.61,.66,3.31,1.17,6.25,1.52,8.81,.35,2.56,.53,4.59,.53,6.09,.53-1.41,1.41-4.92,2.65-10.53,1.24-5.61,2.58-12.05,4.04-19.34s2.23-11.15,2.32-11.59c1.06-5.12,5.21-27.29,12.45-66.49,.44-2.56,1.28-6.71,2.52-12.45,1.24-5.74,2.21-10.79,2.91-15.17,.71-4.37,1.15-8.54,1.33-12.52l-.53-1.32c.26-1.41,1.04-2.49,2.32-3.25,1.28-.75,2.67-1.13,4.17-1.13,.62,0,1.33,.44,2.12,1.32,.79,.88,1.19,1.68,1.19,2.38-.62,12.1-.93,22.43-.93,31,0,13.69,.73,34.17,2.19,61.46s2.19,47.68,2.19,61.2c0,5.21-.18,9.1-.53,11.66,0,1.94,.31,5.79,.93,11.52,.62,5.74,.93,11.57,.93,17.48,0,11.57-1.32,17.97-3.97,19.21v-.79l-1.06,1.06-5.17-2.12v-.79c0-1.15,.26-2.25,.79-3.31l-1.06-2.38c.35-10.77,.53-19.03,.53-24.77,0-9.98-.33-24.86-.99-44.64-.66-19.78-.99-34.62-.99-44.51,0-3.35,.09-8.43,.26-15.23,.18-6.8,.26-11.88,.26-15.23,0-3.09-.16-7.42-.46-12.98-.31-5.56-.51-9.27-.6-11.13-.35,.35-.53,.97-.53,1.85-.53,11.75-3.09,29.58-7.68,53.51-.27,1.68-.49,2.91-.66,3.71-3.36,18.9-6.89,34.48-10.6,46.76-.27,.97-.75,2.3-1.46,3.97-.71,1.68-1.28,3.2-1.72,4.57-.44,1.37-.66,2.76-.66,4.17l.79,1.32c-.18,.62-.58,2.94-1.19,6.95-.62,4.02-1.48,7.26-2.58,9.74-1.1,2.47-2.71,3.71-4.83,3.71-1.24,0-2.3-.71-3.18-2.12-.88-1.41-1.52-3.27-1.92-5.56-.4-2.29-.69-4.5-.86-6.62-.18-2.12-.29-4.35-.33-6.69-.05-2.34-.11-3.78-.2-4.31-.88-6.8-5.1-28.06-12.65-63.78-7.55-35.72-11.85-54.33-12.91-55.83-.71,16.34-1.06,34.62-1.06,54.84,0,9.63,.13,24.02,.4,43.18,.27,19.16,.4,33.51,.4,43.05,0,2.91,.22,7.22,.66,12.91,.44,5.7,.66,10,.66,12.92,0,3.27-.71,5.61-2.12,7.02-5.12,0-7.68-4.72-7.68-14.17,0-4.59,.24-11.99,.73-22.19,.48-10.2,.73-17.9,.73-23.11,0-6-.18-15.12-.53-27.35Z"/><path class="d" d="M299.34,546.92c1.41,10.73,3.16,20.6,5.23,29.6,2.07,9.01,4.99,16.69,8.74,23.05,3.75,6.36,7.92,9.54,12.52,9.54,3,0,5.67-1.68,8.01-5.03,2.34-3.36,4.17-7.97,5.5-13.84,1.33-5.87,2.43-11.77,3.31-17.68,.88-5.92,1.5-12.49,1.85-19.74,.35-7.24,.57-12.8,.66-16.69,.09-3.88,.13-7.77,.13-11.66v-.53c0-3.35-.02-6.2-.07-8.54-.05-2.34-.11-6.18-.2-11.52-.09-5.34-.27-10.09-.53-14.24-.26-4.15-.62-9.18-1.06-15.1-.44-5.92-1.06-11.19-1.85-15.83-.79-4.64-1.7-9.58-2.71-14.83-1.02-5.25-2.25-9.78-3.71-13.58-1.46-3.8-3.11-7.31-4.97-10.53-1.85-3.22-4.02-5.67-6.49-7.35-2.47-1.68-5.12-2.52-7.95-2.52-13.33,0-20,26.8-20,80.4v10.6c0,4.68,.24,10.84,.73,18.48,.48,7.64,1.43,16.82,2.85,27.55Z"/><path class="d" d="M391.53,546.92c1.41,10.73,3.16,20.6,5.23,29.6,2.07,9.01,4.99,16.69,8.74,23.05,3.75,6.36,7.92,9.54,12.52,9.54,3,0,5.67-1.68,8.01-5.03,2.34-3.36,4.17-7.97,5.5-13.84,1.33-5.87,2.43-11.77,3.31-17.68,.88-5.92,1.5-12.49,1.85-19.74,.35-7.24,.57-12.8,.66-16.69,.09-3.88,.13-7.77,.13-11.66v-.53c0-3.35-.02-6.2-.07-8.54-.05-2.34-.11-6.18-.2-11.52-.09-5.34-.27-10.09-.53-14.24-.26-4.15-.62-9.18-1.06-15.1-.44-5.92-1.06-11.19-1.85-15.83-.79-4.64-1.7-9.58-2.71-14.83-1.02-5.25-2.25-9.78-3.71-13.58-1.46-3.8-3.11-7.31-4.97-10.53-1.85-3.22-4.02-5.67-6.49-7.35-2.47-1.68-5.12-2.52-7.95-2.52-13.33,0-20,26.8-20,80.4v10.6c0,4.68,.24,10.84,.73,18.48,.48,7.64,1.43,16.82,2.85,27.55Z"/></g></g></g></svg>